<?xml version="1.0" encoding="UTF-8"?>
<svg xmlns="http://www.w3.org/2000/svg" width="750" height="203" viewBox="0 0 750 203" fill="none">
  <g clip-path="url(#clip0_1030_27300)">
    <rect width="750" height="203" rx="8" fill="#002864"></rect>
    <path opacity="0.5" fill-rule="evenodd" clip-rule="evenodd" d="M-8.79407 -3.6784C-8.32766 -1.06318 -7.48813 1.39167 -6.34 3.6411C-7.82082 3.73898 -9.31128 3.91945 -10.8063 4.18609C-32.7138 8.09317 -47.306 29.02 -43.3989 50.9275C-41.7618 60.1069 -37.1366 68.002 -30.7031 73.79C-39.8017 81.8903 -45.0352 93.9453 -44.135 106.701C-45.2049 106.636 -46.2995 106.696 -47.4013 106.892C-54.8863 108.227 -59.872 115.377 -58.5371 122.862C-58.0195 125.764 -56.6277 128.291 -54.681 130.219C-64.7539 140.054 -69.9387 154.542 -67.2807 169.445C-63.8516 188.673 -48.4129 202.739 -30.0638 205.298C-25.7079 221.423 -9.66372 231.82 7.0899 228.832C10.7076 228.187 14.0785 226.967 17.1255 225.284C17.184 225.965 17.2738 226.649 17.3961 227.335C19.5776 239.567 31.2617 247.714 43.4934 245.532C47.75 244.773 51.512 242.863 54.5162 240.18L196.116 234.401C203.655 237.958 212.332 239.292 221.163 237.717C226.037 236.848 230.56 235.163 234.617 232.829L237.852 232.697L238.151 230.55C243.53 226.68 247.888 221.587 250.891 215.752C260.09 218.92 270.202 219.856 280.46 218.026C312.591 212.296 333.992 181.603 328.262 149.472C323.242 121.325 299.066 101.412 271.549 100.759C273.14 94.1251 273.419 87.0626 272.144 79.9177C267.196 52.1683 240.688 33.6848 212.939 38.6338C206.977 39.6971 201.442 41.7556 196.476 44.6078C188.918 30.2136 172.809 21.6089 155.973 24.2474C142.413 -13.6117 103.142 -37.2849 62.2284 -29.9883C53.9813 -28.5174 46.2319 -25.8889 39.1175 -22.2998C33.5926 -31.011 23.1746 -35.9835 12.3911 -34.0603C-1.84874 -31.5207 -11.3337 -17.9182 -8.79407 -3.6784ZM-1.84234 249.522C-0.735336 255.73 5.19391 259.864 11.401 258.757C17.6081 257.65 21.7426 251.721 20.6356 245.514C19.5286 239.306 13.5993 235.172 7.3922 236.279C1.18508 237.386 -2.94935 243.315 -1.84234 249.522Z" fill="#053883"></path>
    <path opacity="0.5" fill-rule="evenodd" clip-rule="evenodd" d="M786.026 172.372C786.776 171.526 787.415 170.556 787.91 169.475C790.605 163.588 788.017 156.631 782.13 153.936C777.672 151.895 772.6 152.883 769.23 156.04C766.548 153.688 763.484 151.681 760.074 150.12C743.16 142.377 723.49 148.239 713.374 163.129C706.373 160.1 698.429 162.026 693.541 167.417C691.708 165.625 689.54 164.113 687.075 162.985C675.603 157.733 662.045 162.775 656.793 174.248C655.441 177.201 654.771 180.294 654.718 183.347C642.719 180.548 630.011 186.472 624.684 198.109C618.603 211.392 624.442 227.09 637.725 233.171C641.966 235.113 646.453 235.839 650.795 235.497C652.033 240.972 655.721 245.828 661.219 248.345C663.815 249.533 666.542 250.076 669.218 250.039L733.435 268.452C734.415 269.782 735.737 270.889 737.346 271.625C742.403 273.94 748.379 271.718 750.694 266.661C750.823 266.377 750.939 266.091 751.04 265.802C752.172 266.873 753.497 267.779 754.992 268.463C761.918 271.634 770.036 268.925 773.729 262.424C781.968 263.369 790.234 259.002 793.873 251.053C796.694 244.891 796.069 238.032 792.805 232.642C793.864 232.024 794.75 231.085 795.299 229.886C796.715 226.791 795.355 223.134 792.261 221.718C791.806 221.509 791.338 221.361 790.868 221.269C792.686 215.841 791.768 210.031 788.731 205.501C792.167 203.713 795.055 200.809 796.792 197.015C800.938 187.958 796.957 177.254 787.9 173.108C787.283 172.825 786.657 172.58 786.026 172.372ZM678.118 206.601C677.103 206.626 676.081 206.584 675.06 206.471C675.273 208.564 675.237 210.695 674.936 212.82L678.118 206.601ZM749.773 280.95C752.339 282.125 755.371 280.997 756.546 278.431C757.721 275.865 756.593 272.832 754.027 271.657C751.461 270.482 748.428 271.61 747.253 274.176C746.078 276.743 747.206 279.775 749.773 280.95ZM697.444 158.24C696.442 160.429 693.856 161.391 691.667 160.389C689.478 159.387 688.516 156.8 689.518 154.612C690.52 152.423 693.107 151.461 695.296 152.463C697.484 153.465 698.446 156.051 697.444 158.24Z" fill="#053883"></path>
    <rect x="421" y="117" width="153" height="48" rx="8" fill="#FE8848"></rect>
    <path d="M451.599 136.892V134.864H461.156V136.892H457.594V146.5H455.162V136.892H451.599ZM461.778 146.5V137.773H464.125V139.295H464.216C464.375 138.754 464.642 138.345 465.017 138.068C465.392 137.788 465.824 137.648 466.312 137.648C466.434 137.648 466.564 137.655 466.705 137.67C466.845 137.686 466.968 137.706 467.074 137.733V139.881C466.96 139.847 466.803 139.816 466.602 139.79C466.402 139.763 466.218 139.75 466.051 139.75C465.695 139.75 465.377 139.828 465.097 139.983C464.82 140.134 464.6 140.347 464.438 140.619C464.278 140.892 464.199 141.206 464.199 141.562V146.5H461.778ZM470.085 149.773C469.778 149.773 469.491 149.748 469.222 149.699C468.956 149.653 468.737 149.595 468.562 149.523L469.108 147.716C469.392 147.803 469.648 147.85 469.875 147.858C470.106 147.866 470.305 147.813 470.472 147.699C470.642 147.585 470.78 147.392 470.886 147.119L471.028 146.75L467.898 137.773H470.443L472.25 144.182H472.341L474.165 137.773H476.727L473.335 147.443C473.172 147.913 472.951 148.322 472.67 148.67C472.394 149.023 472.044 149.294 471.619 149.483C471.195 149.676 470.684 149.773 470.085 149.773ZM481.714 146.5V134.864H489.419V136.892H484.175V139.665H488.908V141.693H484.175V146.5H481.714ZM494.331 146.67C493.448 146.67 492.685 146.483 492.041 146.108C491.401 145.729 490.907 145.203 490.558 144.528C490.21 143.85 490.036 143.064 490.036 142.17C490.036 141.269 490.21 140.481 490.558 139.807C490.907 139.129 491.401 138.602 492.041 138.227C492.685 137.848 493.448 137.659 494.331 137.659C495.214 137.659 495.975 137.848 496.615 138.227C497.259 138.602 497.755 139.129 498.104 139.807C498.452 140.481 498.626 141.269 498.626 142.17C498.626 143.064 498.452 143.85 498.104 144.528C497.755 145.203 497.259 145.729 496.615 146.108C495.975 146.483 495.214 146.67 494.331 146.67ZM494.342 144.795C494.744 144.795 495.079 144.682 495.348 144.455C495.617 144.223 495.82 143.909 495.956 143.511C496.096 143.114 496.166 142.661 496.166 142.153C496.166 141.646 496.096 141.193 495.956 140.795C495.82 140.398 495.617 140.083 495.348 139.852C495.079 139.621 494.744 139.506 494.342 139.506C493.937 139.506 493.596 139.621 493.32 139.852C493.047 140.083 492.84 140.398 492.7 140.795C492.564 141.193 492.496 141.646 492.496 142.153C492.496 142.661 492.564 143.114 492.7 143.511C492.84 143.909 493.047 144.223 493.32 144.455C493.596 144.682 493.937 144.795 494.342 144.795ZM500.2 146.5V137.773H502.547V139.295H502.638C502.797 138.754 503.064 138.345 503.439 138.068C503.814 137.788 504.246 137.648 504.734 137.648C504.856 137.648 504.986 137.655 505.126 137.67C505.267 137.686 505.39 137.706 505.496 137.733V139.881C505.382 139.847 505.225 139.816 505.024 139.79C504.823 139.763 504.64 139.75 504.473 139.75C504.117 139.75 503.799 139.828 503.518 139.983C503.242 140.134 503.022 140.347 502.859 140.619C502.7 140.892 502.621 141.206 502.621 141.562V146.5H500.2ZM510.496 146.5V134.864H518.2V136.892H512.956V139.665H517.689V141.693H512.956V146.5H510.496ZM519.669 146.5V137.773H522.016V139.295H522.107C522.266 138.754 522.533 138.345 522.908 138.068C523.283 137.788 523.714 137.648 524.203 137.648C524.324 137.648 524.455 137.655 524.595 137.67C524.735 137.686 524.858 137.706 524.964 137.733V139.881C524.851 139.847 524.694 139.816 524.493 139.79C524.292 139.763 524.108 139.75 523.942 139.75C523.586 139.75 523.268 139.828 522.987 139.983C522.711 140.134 522.491 140.347 522.328 140.619C522.169 140.892 522.089 141.206 522.089 141.562V146.5H519.669ZM529.787 146.67C528.889 146.67 528.116 146.489 527.469 146.125C526.825 145.758 526.329 145.239 525.98 144.568C525.632 143.894 525.457 143.097 525.457 142.176C525.457 141.278 525.632 140.491 525.98 139.812C526.329 139.134 526.819 138.606 527.452 138.227C528.088 137.848 528.834 137.659 529.69 137.659C530.266 137.659 530.802 137.752 531.298 137.938C531.798 138.119 532.234 138.394 532.605 138.761C532.98 139.129 533.272 139.591 533.48 140.148C533.688 140.701 533.793 141.348 533.793 142.091V142.756H526.423V141.256H531.514C531.514 140.907 531.438 140.598 531.287 140.33C531.135 140.061 530.925 139.85 530.656 139.699C530.391 139.544 530.082 139.466 529.73 139.466C529.363 139.466 529.037 139.551 528.753 139.722C528.473 139.888 528.253 140.114 528.094 140.398C527.935 140.678 527.853 140.991 527.849 141.335V142.761C527.849 143.193 527.929 143.566 528.088 143.881C528.251 144.195 528.48 144.438 528.776 144.608C529.071 144.778 529.421 144.864 529.827 144.864C530.096 144.864 530.342 144.826 530.565 144.75C530.789 144.674 530.98 144.561 531.139 144.409C531.298 144.258 531.42 144.072 531.503 143.852L533.741 144C533.628 144.538 533.395 145.008 533.043 145.409C532.694 145.807 532.243 146.117 531.69 146.341C531.141 146.561 530.507 146.67 529.787 146.67ZM539.349 146.67C538.452 146.67 537.679 146.489 537.031 146.125C536.387 145.758 535.891 145.239 535.543 144.568C535.194 143.894 535.02 143.097 535.02 142.176C535.02 141.278 535.194 140.491 535.543 139.812C535.891 139.134 536.382 138.606 537.014 138.227C537.651 137.848 538.397 137.659 539.253 137.659C539.829 137.659 540.365 137.752 540.861 137.938C541.361 138.119 541.796 138.394 542.168 138.761C542.543 139.129 542.834 139.591 543.043 140.148C543.251 140.701 543.355 141.348 543.355 142.091V142.756H535.986V141.256H541.077C541.077 140.907 541.001 140.598 540.849 140.33C540.698 140.061 540.488 139.85 540.219 139.699C539.954 139.544 539.645 139.466 539.293 139.466C538.925 139.466 538.599 139.551 538.315 139.722C538.035 139.888 537.815 140.114 537.656 140.398C537.497 140.678 537.416 140.991 537.412 141.335V142.761C537.412 143.193 537.491 143.566 537.651 143.881C537.813 144.195 538.043 144.438 538.338 144.608C538.634 144.778 538.984 144.864 539.389 144.864C539.658 144.864 539.904 144.826 540.128 144.75C540.351 144.674 540.543 144.561 540.702 144.409C540.861 144.258 540.982 144.072 541.065 143.852L543.304 144C543.19 144.538 542.957 145.008 542.605 145.409C542.257 145.807 541.806 146.117 541.253 146.341C540.704 146.561 540.069 146.67 539.349 146.67Z" fill="white"></path>
    <path d="M304.665 56.288C308.961 56.288 311.337 54.152 311.337 50.936C311.337 44.984 302.289 46.472 302.289 44.432C302.289 43.76 302.817 43.28 304.017 43.28C305.601 43.28 307.353 43.832 308.697 44.936L310.953 41.984C309.249 40.52 307.017 39.752 304.449 39.752C300.345 39.752 298.065 42.152 298.065 44.84C298.065 51.008 307.137 49.256 307.137 51.44C307.137 52.208 306.273 52.76 304.857 52.76C302.673 52.76 300.897 51.8 299.745 50.648L297.561 53.744C299.169 55.28 301.425 56.288 304.665 56.288ZM317.283 56.288C318.651 56.288 319.563 55.952 320.019 55.52L319.299 52.736C319.179 52.88 318.771 53.024 318.363 53.024C317.715 53.024 317.331 52.52 317.331 51.848V47.624H319.683V44.408H317.331V41.24H313.659V44.408H311.739V47.624H313.659V52.88C313.659 55.112 314.931 56.288 317.283 56.288ZM327.107 56.288C328.883 56.288 330.803 55.784 331.955 54.752L330.395 52.448C329.747 53.072 328.331 53.432 327.515 53.432C325.835 53.432 324.827 52.448 324.611 51.368H332.867V50.576C332.867 46.64 330.371 44.12 326.939 44.12C323.315 44.12 320.771 46.832 320.771 50.192C320.771 53.96 323.531 56.288 327.107 56.288ZM329.339 48.968H324.563C324.707 48.128 325.331 46.976 326.939 46.976C328.643 46.976 329.243 48.152 329.339 48.968ZM341.816 56.288C344.72 56.288 346.904 54.128 346.904 50.192C346.904 46.28 344.72 44.12 341.816 44.12C340.496 44.12 339.296 44.648 338.384 45.752V44.408H334.688V60.416H338.384V54.632C339.344 55.784 340.52 56.288 341.816 56.288ZM340.592 53.024C339.8 53.024 338.84 52.568 338.384 51.968V48.44C338.84 47.816 339.8 47.384 340.592 47.384C342.032 47.384 343.136 48.464 343.136 50.192C343.136 51.944 342.032 53.024 340.592 53.024ZM366.481 56V44.408H362.785V51.896C362.353 52.448 361.633 53.024 360.577 53.024C359.377 53.024 358.657 52.544 358.657 51.152V44.408H354.961V52.664C354.961 54.8 356.137 56.288 358.777 56.288C360.721 56.288 362.065 55.424 362.785 54.608V56H366.481ZM376.292 56.288C379.196 56.288 381.38 54.128 381.38 50.192C381.38 46.28 379.196 44.12 376.292 44.12C374.972 44.12 373.772 44.648 372.86 45.752V44.408H369.164V60.416H372.86V54.632C373.82 55.784 374.996 56.288 376.292 56.288ZM375.068 53.024C374.276 53.024 373.316 52.568 372.86 51.968V48.44C373.316 47.816 374.276 47.384 375.068 47.384C376.508 47.384 377.612 48.464 377.612 50.192C377.612 51.944 376.508 53.024 375.068 53.024ZM389.198 60.536C389.582 60.632 390.35 60.704 390.71 60.704C392.702 60.656 394.238 60.08 395.102 57.896L400.55 44.408H397.262L394.238 52.472L391.214 44.408H387.95L392.654 56.168L392.222 57.152C391.934 57.776 391.406 57.992 390.614 57.992C390.326 57.992 389.918 57.92 389.654 57.8L389.198 60.536ZM407.286 56.288C411.126 56.288 413.43 53.504 413.43 50.192C413.43 46.904 411.126 44.12 407.286 44.12C403.47 44.12 401.166 46.904 401.166 50.192C401.166 53.504 403.47 56.288 407.286 56.288ZM407.286 53.576C405.39 53.576 404.334 52.016 404.334 50.192C404.334 48.392 405.39 46.832 407.286 46.832C409.182 46.832 410.262 48.392 410.262 50.192C410.262 52.016 409.182 53.576 407.286 53.576ZM426.564 56V44.408H423.516V52.256C422.988 52.928 422.052 53.576 420.876 53.576C419.58 53.576 418.74 53.048 418.74 51.44V44.408H415.692V52.64C415.692 54.896 416.892 56.288 419.436 56.288C421.332 56.288 422.724 55.424 423.516 54.536V56H426.564ZM432.638 56V48.344C433.142 47.6 434.486 47.024 435.494 47.024C435.83 47.024 436.118 47.048 436.334 47.096V44.12C434.894 44.12 433.454 44.96 432.638 45.992V44.408H429.59V56H432.638ZM476.463 85L479.991 73.408H476.823L474.663 81.208L472.119 73.408H469.407L466.863 81.208L464.703 73.408H461.535L465.063 85H468.327L470.775 77.104L473.223 85H476.463ZM483.004 72.16C484.012 72.16 484.828 71.344 484.828 70.336C484.828 69.328 484.012 68.536 483.004 68.536C482.02 68.536 481.18 69.328 481.18 70.336C481.18 71.344 482.02 72.16 483.004 72.16ZM484.54 85V73.408H481.492V85H484.54ZM491.451 85.288C492.723 85.288 493.539 84.952 493.995 84.544L493.347 82.24C493.179 82.408 492.747 82.576 492.291 82.576C491.619 82.576 491.235 82.024 491.235 81.304V76.072H493.587V73.408H491.235V70.24H488.163V73.408H486.243V76.072H488.163V82.12C488.163 84.184 489.315 85.288 491.451 85.288ZM506.568 85V76.768C506.568 74.512 505.344 73.12 502.8 73.12C500.904 73.12 499.464 74.032 498.72 74.92V68.992H495.672V85H498.72V77.2C499.248 76.504 500.184 75.832 501.36 75.832C502.68 75.832 503.52 76.336 503.52 77.944V85H506.568ZM521.495 85.288C525.815 85.288 527.903 83.08 527.903 80.152C527.903 74.176 518.711 75.88 518.711 73.336C518.711 72.376 519.527 71.728 520.991 71.728C522.623 71.728 524.351 72.28 525.647 73.48L527.543 70.984C525.959 69.52 523.847 68.752 521.303 68.752C517.535 68.752 515.231 70.96 515.231 73.624C515.231 79.648 524.447 77.704 524.447 80.536C524.447 81.448 523.535 82.312 521.663 82.312C519.455 82.312 517.703 81.328 516.575 80.152L514.727 82.744C516.215 84.256 518.423 85.288 521.495 85.288ZM535.501 85.288C539.341 85.288 541.645 82.504 541.645 79.192C541.645 75.904 539.341 73.12 535.501 73.12C531.685 73.12 529.381 75.904 529.381 79.192C529.381 82.504 531.685 85.288 535.501 85.288ZM535.501 82.576C533.605 82.576 532.549 81.016 532.549 79.192C532.549 77.392 533.605 75.832 535.501 75.832C537.397 75.832 538.477 77.392 538.477 79.192C538.477 81.016 537.397 82.576 535.501 82.576ZM549.307 85.288C551.683 85.288 553.123 84.256 553.891 83.176L551.899 81.328C551.347 82.096 550.507 82.576 549.451 82.576C547.603 82.576 546.307 81.208 546.307 79.192C546.307 77.176 547.603 75.832 549.451 75.832C550.507 75.832 551.347 76.264 551.899 77.08L553.891 75.208C553.123 74.152 551.683 73.12 549.307 73.12C545.731 73.12 543.163 75.64 543.163 79.192C543.163 82.768 545.731 85.288 549.307 85.288ZM557.395 72.16C558.403 72.16 559.219 71.344 559.219 70.336C559.219 69.328 558.403 68.536 557.395 68.536C556.411 68.536 555.571 69.328 555.571 70.336C555.571 71.344 556.411 72.16 557.395 72.16ZM558.931 85V73.408H555.883V85H558.931ZM571.961 85V77.512C571.961 74.176 569.537 73.12 566.897 73.12C565.073 73.12 563.249 73.696 561.833 74.944L562.985 76.984C563.969 76.072 565.121 75.616 566.369 75.616C567.905 75.616 568.913 76.384 568.913 77.56V79.12C568.145 78.208 566.777 77.704 565.241 77.704C563.393 77.704 561.209 78.736 561.209 81.448C561.209 84.04 563.393 85.288 565.241 85.288C566.753 85.288 568.121 84.736 568.913 83.8V85H571.961ZM566.465 83.224C565.265 83.224 564.281 82.6 564.281 81.52C564.281 80.392 565.265 79.768 566.465 79.768C567.449 79.768 568.409 80.104 568.913 80.776V82.216C568.409 82.888 567.449 83.224 566.465 83.224ZM578.033 85V68.992H574.985V85H578.033ZM584.535 85V79.312H588.615C592.071 79.312 593.991 76.936 593.991 74.152C593.991 71.344 592.095 68.992 588.615 68.992H581.127V85H584.535ZM588.159 76.312H584.535V71.992H588.159C589.503 71.992 590.511 72.808 590.511 74.152C590.511 75.472 589.503 76.312 588.159 76.312ZM597.544 72.16C598.552 72.16 599.368 71.344 599.368 70.336C599.368 69.328 598.552 68.536 597.544 68.536C596.56 68.536 595.72 69.328 595.72 70.336C595.72 71.344 596.56 72.16 597.544 72.16ZM599.08 85V73.408H596.032V85H599.08ZM605.15 85V68.992H602.102V85H605.15ZM613.548 85.288C617.388 85.288 619.692 82.504 619.692 79.192C619.692 75.904 617.388 73.12 613.548 73.12C609.732 73.12 607.428 75.904 607.428 79.192C607.428 82.504 609.732 85.288 613.548 85.288ZM613.548 82.576C611.652 82.576 610.596 81.016 610.596 79.192C610.596 77.392 611.652 75.832 613.548 75.832C615.444 75.832 616.524 77.392 616.524 79.192C616.524 81.016 615.444 82.576 613.548 82.576ZM625.841 85.288C627.113 85.288 627.929 84.952 628.385 84.544L627.737 82.24C627.569 82.408 627.137 82.576 626.681 82.576C626.009 82.576 625.625 82.024 625.625 81.304V76.072H627.977V73.408H625.625V70.24H622.553V73.408H620.633V76.072H622.553V82.12C622.553 84.184 623.705 85.288 625.841 85.288Z" fill="white"></path>
    <path d="M450.139 56.288C454.459 56.288 456.547 54.08 456.547 51.152C456.547 45.176 447.355 46.88 447.355 44.336C447.355 43.376 448.171 42.728 449.635 42.728C451.267 42.728 452.995 43.28 454.291 44.48L456.187 41.984C454.603 40.52 452.491 39.752 449.947 39.752C446.179 39.752 443.875 41.96 443.875 44.624C443.875 50.648 453.091 48.704 453.091 51.536C453.091 52.448 452.179 53.312 450.307 53.312C448.099 53.312 446.347 52.328 445.219 51.152L443.371 53.744C444.859 55.256 447.067 56.288 450.139 56.288ZM464.146 56.288C467.986 56.288 470.29 53.504 470.29 50.192C470.29 46.904 467.986 44.12 464.146 44.12C460.33 44.12 458.026 46.904 458.026 50.192C458.026 53.504 460.33 56.288 464.146 56.288ZM464.146 53.576C462.25 53.576 461.194 52.016 461.194 50.192C461.194 48.392 462.25 46.832 464.146 46.832C466.042 46.832 467.122 48.392 467.122 50.192C467.122 52.016 466.042 53.576 464.146 53.576ZM477.951 56.288C480.327 56.288 481.767 55.256 482.535 54.176L480.543 52.328C479.991 53.096 479.151 53.576 478.095 53.576C476.247 53.576 474.951 52.208 474.951 50.192C474.951 48.176 476.247 46.832 478.095 46.832C479.151 46.832 479.991 47.264 480.543 48.08L482.535 46.208C481.767 45.152 480.327 44.12 477.951 44.12C474.375 44.12 471.807 46.64 471.807 50.192C471.807 53.768 474.375 56.288 477.951 56.288ZM486.04 43.16C487.048 43.16 487.864 42.344 487.864 41.336C487.864 40.328 487.048 39.536 486.04 39.536C485.056 39.536 484.216 40.328 484.216 41.336C484.216 42.344 485.056 43.16 486.04 43.16ZM487.576 56V44.408H484.528V56H487.576ZM500.606 56V48.512C500.606 45.176 498.182 44.12 495.542 44.12C493.718 44.12 491.894 44.696 490.478 45.944L491.63 47.984C492.614 47.072 493.766 46.616 495.014 46.616C496.55 46.616 497.558 47.384 497.558 48.56V50.12C496.79 49.208 495.422 48.704 493.886 48.704C492.038 48.704 489.854 49.736 489.854 52.448C489.854 55.04 492.038 56.288 493.886 56.288C495.398 56.288 496.766 55.736 497.558 54.8V56H500.606ZM495.11 54.224C493.91 54.224 492.926 53.6 492.926 52.52C492.926 51.392 493.91 50.768 495.11 50.768C496.094 50.768 497.054 51.104 497.558 51.776V53.216C497.054 53.888 496.094 54.224 495.11 54.224ZM506.677 56V39.992H503.629V56H506.677ZM533.264 56V39.992H528.464L524.576 49.664L520.688 39.992H515.912V56H519.32V44.792L523.832 56H525.32L529.832 44.792V56H533.264ZM541.819 56.288C543.619 56.288 545.443 55.736 546.595 54.68L545.251 52.712C544.507 53.432 543.139 53.864 542.155 53.864C540.187 53.864 539.011 52.64 538.819 51.176H547.435V50.504C547.435 46.712 545.083 44.12 541.627 44.12C538.099 44.12 535.627 46.832 535.627 50.192C535.627 53.912 538.291 56.288 541.819 56.288ZM544.483 49.112H538.771C538.915 47.96 539.731 46.544 541.627 46.544C543.643 46.544 544.411 48.008 544.483 49.112ZM560.677 56V39.992H557.605V45.896C556.693 44.72 555.397 44.12 554.029 44.12C551.077 44.12 548.893 46.424 548.893 50.216C548.893 54.08 551.101 56.288 554.029 56.288C555.421 56.288 556.693 55.664 557.605 54.512V56H560.677ZM554.965 53.576C553.237 53.576 552.037 52.208 552.037 50.216C552.037 48.2 553.237 46.832 554.965 46.832C555.997 46.832 557.101 47.384 557.605 48.152V52.256C557.101 53.024 555.997 53.576 554.965 53.576ZM565.212 43.16C566.22 43.16 567.036 42.344 567.036 41.336C567.036 40.328 566.22 39.536 565.212 39.536C564.228 39.536 563.388 40.328 563.388 41.336C563.388 42.344 564.228 43.16 565.212 43.16ZM566.748 56V44.408H563.7V56H566.748ZM579.778 56V48.512C579.778 45.176 577.354 44.12 574.714 44.12C572.89 44.12 571.066 44.696 569.65 45.944L570.802 47.984C571.786 47.072 572.938 46.616 574.186 46.616C575.722 46.616 576.73 47.384 576.73 48.56V50.12C575.962 49.208 574.594 48.704 573.058 48.704C571.21 48.704 569.026 49.736 569.026 52.448C569.026 55.04 571.21 56.288 573.058 56.288C574.57 56.288 575.938 55.736 576.73 54.8V56H579.778ZM574.282 54.224C573.082 54.224 572.098 53.6 572.098 52.52C572.098 51.392 573.082 50.768 574.282 50.768C575.266 50.768 576.226 51.104 576.73 51.776V53.216C576.226 53.888 575.266 54.224 574.282 54.224ZM606.366 56V39.992H601.566L597.678 49.664L593.79 39.992H589.014V56H592.422V44.792L596.934 56H598.422L602.934 44.792V56H606.366ZM619.481 56V48.512C619.481 45.176 617.057 44.12 614.417 44.12C612.593 44.12 610.769 44.696 609.353 45.944L610.505 47.984C611.489 47.072 612.641 46.616 613.889 46.616C615.425 46.616 616.433 47.384 616.433 48.56V50.12C615.665 49.208 614.297 48.704 612.761 48.704C610.913 48.704 608.729 49.736 608.729 52.448C608.729 55.04 610.913 56.288 612.761 56.288C614.273 56.288 615.641 55.736 616.433 54.8V56H619.481ZM613.985 54.224C612.785 54.224 611.801 53.6 611.801 52.52C611.801 51.392 612.785 50.768 613.985 50.768C614.969 50.768 615.929 51.104 616.433 51.776V53.216C615.929 53.888 614.969 54.224 613.985 54.224ZM625.552 56V48.344C626.056 47.6 627.4 47.024 628.408 47.024C628.744 47.024 629.032 47.048 629.248 47.096V44.12C627.808 44.12 626.368 44.96 625.552 45.992V44.408H622.504V56H625.552ZM642.481 56L637.753 49.664L642.337 44.408H638.593L634.201 49.568V39.992H631.153V56H634.201V53.024L635.593 51.536L638.665 56H642.481ZM649.304 56.288C651.104 56.288 652.928 55.736 654.08 54.68L652.736 52.712C651.992 53.432 650.624 53.864 649.64 53.864C647.672 53.864 646.496 52.64 646.304 51.176H654.92V50.504C654.92 46.712 652.568 44.12 649.112 44.12C645.584 44.12 643.112 46.832 643.112 50.192C643.112 53.912 645.776 56.288 649.304 56.288ZM651.968 49.112H646.256C646.4 47.96 647.216 46.544 649.112 46.544C651.128 46.544 651.896 48.008 651.968 49.112ZM661.009 56.288C662.281 56.288 663.097 55.952 663.553 55.544L662.905 53.24C662.737 53.408 662.305 53.576 661.849 53.576C661.177 53.576 660.793 53.024 660.793 52.304V47.072H663.145V44.408H660.793V41.24H657.721V44.408H655.801V47.072H657.721V53.12C657.721 55.184 658.873 56.288 661.009 56.288ZM666.743 43.16C667.751 43.16 668.567 42.344 668.567 41.336C668.567 40.328 667.751 39.536 666.743 39.536C665.759 39.536 664.919 40.328 664.919 41.336C664.919 42.344 665.759 43.16 666.743 43.16ZM668.279 56V44.408H665.231V56H668.279ZM682.173 56V47.816C682.173 45.56 680.949 44.12 678.405 44.12C676.509 44.12 675.093 45.032 674.349 45.92V44.408H671.301V56H674.349V48.2C674.853 47.504 675.789 46.832 676.989 46.832C678.285 46.832 679.125 47.384 679.125 48.992V56H682.173ZM689.952 60.704C692.808 60.704 696.216 59.624 696.216 55.208V44.408H693.144V45.896C692.208 44.72 690.96 44.12 689.568 44.12C686.64 44.12 684.456 46.232 684.456 50.024C684.456 53.888 686.664 55.928 689.568 55.928C690.984 55.928 692.232 55.256 693.144 54.104V55.28C693.144 57.56 691.416 58.208 689.952 58.208C688.488 58.208 687.264 57.8 686.328 56.768L684.96 58.976C686.424 60.248 687.96 60.704 689.952 60.704ZM690.528 53.216C688.8 53.216 687.6 52.016 687.6 50.024C687.6 48.032 688.8 46.832 690.528 46.832C691.536 46.832 692.64 47.384 693.144 48.152V51.896C692.64 52.64 691.536 53.216 690.528 53.216ZM372.137 85.288C375.353 85.288 377.153 83.68 377.153 81.568C377.153 76.888 370.289 78.328 370.289 76.6C370.289 75.952 371.009 75.448 372.113 75.448C373.529 75.448 374.849 76.048 375.545 76.792L376.769 74.704C375.617 73.792 374.057 73.12 372.089 73.12C369.041 73.12 367.337 74.824 367.337 76.768C367.337 81.328 374.225 79.768 374.225 81.688C374.225 82.408 373.601 82.936 372.281 82.936C370.841 82.936 369.113 82.144 368.273 81.352L366.953 83.488C368.177 84.616 370.121 85.288 372.137 85.288ZM383.287 85.288C384.559 85.288 385.375 84.952 385.831 84.544L385.183 82.24C385.015 82.408 384.583 82.576 384.127 82.576C383.455 82.576 383.071 82.024 383.071 81.304V76.072H385.423V73.408H383.071V70.24H379.999V73.408H378.079V76.072H379.999V82.12C379.999 84.184 381.151 85.288 383.287 85.288ZM390.556 85V77.344C391.06 76.6 392.404 76.024 393.412 76.024C393.748 76.024 394.036 76.048 394.252 76.096V73.12C392.812 73.12 391.372 73.96 390.556 74.992V73.408H387.508V85H390.556ZM406.165 85V77.512C406.165 74.176 403.741 73.12 401.101 73.12C399.277 73.12 397.453 73.696 396.037 74.944L397.189 76.984C398.173 76.072 399.325 75.616 400.573 75.616C402.109 75.616 403.117 76.384 403.117 77.56V79.12C402.349 78.208 400.981 77.704 399.445 77.704C397.597 77.704 395.413 78.736 395.413 81.448C395.413 84.04 397.597 85.288 399.445 85.288C400.957 85.288 402.325 84.736 403.117 83.8V85H406.165ZM400.669 83.224C399.469 83.224 398.485 82.6 398.485 81.52C398.485 80.392 399.469 79.768 400.669 79.768C401.653 79.768 402.613 80.104 403.117 80.776V82.216C402.613 82.888 401.653 83.224 400.669 83.224ZM413.076 85.288C414.348 85.288 415.164 84.952 415.62 84.544L414.972 82.24C414.804 82.408 414.372 82.576 413.916 82.576C413.244 82.576 412.86 82.024 412.86 81.304V76.072H415.212V73.408H412.86V70.24H409.788V73.408H407.868V76.072H409.788V82.12C409.788 84.184 410.94 85.288 413.076 85.288ZM422.745 85.288C424.545 85.288 426.369 84.736 427.521 83.68L426.177 81.712C425.433 82.432 424.065 82.864 423.081 82.864C421.113 82.864 419.937 81.64 419.745 80.176H428.361V79.504C428.361 75.712 426.009 73.12 422.553 73.12C419.025 73.12 416.553 75.832 416.553 79.192C416.553 82.912 419.217 85.288 422.745 85.288ZM425.409 78.112H419.697C419.841 76.96 420.657 75.544 422.553 75.544C424.569 75.544 425.337 77.008 425.409 78.112ZM435.315 89.704C438.171 89.704 441.579 88.624 441.579 84.208V73.408H438.507V74.896C437.571 73.72 436.323 73.12 434.931 73.12C432.003 73.12 429.819 75.232 429.819 79.024C429.819 82.888 432.027 84.928 434.931 84.928C436.347 84.928 437.595 84.256 438.507 83.104V84.28C438.507 86.56 436.779 87.208 435.315 87.208C433.851 87.208 432.627 86.8 431.691 85.768L430.323 87.976C431.787 89.248 433.323 89.704 435.315 89.704ZM435.891 82.216C434.163 82.216 432.963 81.016 432.963 79.024C432.963 77.032 434.163 75.832 435.891 75.832C436.899 75.832 438.003 76.384 438.507 77.152V80.896C438.003 81.64 436.899 82.216 435.891 82.216ZM444.194 89.536C444.578 89.632 445.346 89.704 445.706 89.704C447.698 89.656 449.234 89.08 450.098 86.896L455.546 73.408H452.258L449.234 81.472L446.21 73.408H442.946L447.65 85.168L447.218 86.152C446.93 86.776 446.402 86.992 445.61 86.992C445.322 86.992 444.914 86.92 444.65 86.8L444.194 89.536Z" fill="#6FDDAF"></path>
    <circle cx="134.388" cy="104.686" r="32.1138" stroke="white" stroke-width="0.655385" stroke-linecap="round" stroke-dasharray="1.31 2.62"></circle>
    <circle cx="109.483" cy="88.3015" r="9.83077" fill="#6AC0FF" stroke="white" stroke-width="0.655385"></circle>
    <g style="mix-blend-mode:multiply">
      <path d="M108.198 96.8521C113.628 96.8521 118.029 92.4508 118.029 87.0214C118.029 84.633 117.177 82.4436 115.761 80.7402C117.929 82.5435 119.308 85.2611 119.308 88.301C119.308 93.7304 114.907 98.1318 109.478 98.1318C106.437 98.1318 103.718 96.751 101.915 94.5822C103.618 95.9996 105.809 96.8521 108.198 96.8521Z" fill="#6AC0FF" fill-opacity="0.5"></path>
    </g>
    <path d="M100.934 88.3009C100.934 84.9173 102.9 81.9928 105.752 80.6073M109.482 79.7524C108.589 79.7524 107.727 79.8895 106.918 80.1438" stroke="white" stroke-opacity="0.27" stroke-width="0.655385" stroke-linecap="round" stroke-linejoin="round"></path>
    <path d="M105.498 91.0566L105.527 91.1423C105.523 91.1323 105.511 91.1025 105.498 91.0566Z" fill="#69C9D0"></path>
    <path d="M114.59 85.1266C114.28 85.2629 113.955 85.3583 113.622 85.4092C113.778 85.382 114.007 85.0948 114.099 84.9782C114.237 84.8026 114.344 84.6023 114.411 84.3873C114.411 84.3716 114.427 84.3489 114.411 84.3373C114.404 84.3328 114.395 84.3307 114.386 84.3307C114.377 84.3307 114.368 84.3328 114.36 84.3373C113.999 84.5382 113.614 84.6916 113.214 84.7935C113.2 84.7981 113.185 84.7981 113.172 84.7945C113.157 84.791 113.145 84.7834 113.134 84.7728C113.104 84.735 113.07 84.6992 113.035 84.6658C112.873 84.5165 112.689 84.3938 112.489 84.303C112.22 84.1894 111.929 84.1405 111.639 84.1591C111.357 84.1778 111.081 84.2555 110.829 84.3873C110.581 84.5271 110.363 84.7163 110.188 84.9439C110.004 85.1786 109.87 85.4511 109.797 85.7423C109.736 86.0199 109.729 86.3065 109.775 86.5866C109.774 86.6346 109.774 86.6411 109.735 86.6346C108.15 86.3949 106.852 85.8175 105.793 84.5785C105.746 84.524 105.722 84.524 105.684 84.5785C105.22 85.2992 105.441 86.4403 106.017 87.004C106.095 87.0792 106.175 87.1524 106.259 87.2205C105.994 87.2013 105.736 87.1276 105.5 87.004C105.456 86.9742 105.431 86.9904 105.429 87.0449C105.422 87.1211 105.422 87.1973 105.428 87.273C105.474 87.6369 105.612 87.9816 105.83 88.2722C106.048 88.5624 106.337 88.7875 106.668 88.9253C106.748 88.9606 106.832 88.9874 106.919 89.005C106.674 89.0545 106.422 89.0621 106.174 89.0277C106.121 89.0161 106.101 89.0459 106.121 89.0984C106.445 90.0114 107.153 90.2894 107.673 90.4449C107.744 90.456 107.815 90.456 107.895 90.4746L107.882 90.4883C107.728 90.7754 107.107 90.9692 106.822 91.0696C106.302 91.2614 105.748 91.3341 105.199 91.2841C105.112 91.2705 105.093 91.2725 105.07 91.2841C105.048 91.2957 105.07 91.3205 105.094 91.3437C105.205 91.4189 105.316 91.485 105.431 91.5486C105.775 91.7414 106.138 91.8943 106.515 92.0048C108.465 92.5569 110.662 92.1512 112.13 90.6563C113.285 89.4835 113.694 87.8655 113.698 86.2455C113.698 86.1839 113.772 86.1476 113.814 86.1158C114.106 85.8826 114.363 85.6076 114.578 85.2987C114.615 85.2528 114.635 85.1942 114.632 85.1347C114.632 85.1004 114.632 85.1074 114.59 85.1256L114.59 85.1266Z" fill="#FBFBFB"></path>
    <circle cx="134.388" cy="104.686" r="57.0185" stroke="white" stroke-width="0.655385" stroke-linecap="round" stroke-dasharray="1.31 2.62"></circle>
    <circle cx="184.197" cy="78.4705" r="10.4862" fill="url(#paint0_linear_1030_27300)" stroke="white" stroke-width="0.655385"></circle>
    <g style="mix-blend-mode:multiply">
      <path d="M182.83 87.5913C188.621 87.5913 193.316 82.8965 193.316 77.1052C193.316 74.5576 192.407 72.2222 190.897 70.4053C193.209 72.3288 194.68 75.2276 194.68 78.4701C194.68 84.2615 189.986 88.9563 184.194 88.9563C180.95 88.9563 178.051 87.4834 176.127 85.17C177.944 86.682 180.281 87.5913 182.83 87.5913Z" fill="url(#paint1_linear_1030_27300)" fill-opacity="0.5"></path>
    </g>
    <path d="M175.078 78.4704C175.078 74.8612 177.175 71.7417 180.217 70.2639M184.196 69.3521C183.243 69.3521 182.324 69.4983 181.461 69.7695" stroke="white" stroke-opacity="0.27" stroke-width="0.655385" stroke-linecap="round" stroke-linejoin="round"></path>
    <path d="M179.947 81.4067L179.978 81.4984C179.974 81.4877 179.961 81.4558 179.947 81.4067Z" fill="#69C9D0"></path>
    <path fill-rule="evenodd" clip-rule="evenodd" d="M181.535 73.6831C180.319 73.8466 179.365 74.7812 179.201 75.9689C179.161 76.2598 179.161 80.6829 179.201 80.9738C179.282 81.5618 179.549 82.0876 179.979 82.5051C180.407 82.9216 180.951 83.1825 181.554 83.261C181.854 83.3 186.405 83.3 186.705 83.261C187.936 83.1008 188.893 82.1701 189.058 80.9738C189.098 80.6829 189.098 76.2598 189.058 75.9689C188.893 74.7726 187.936 73.8419 186.705 73.6817C186.417 73.6443 181.815 73.6456 181.535 73.6831ZM186.495 74.5203C186.969 74.564 187.357 74.7414 187.675 75.0594C187.985 75.3699 188.152 75.726 188.195 76.1723C188.222 76.4422 188.222 80.5005 188.195 80.7704C188.152 81.2167 187.985 81.5728 187.675 81.8833C187.357 82.2013 186.969 82.3787 186.495 82.4224C186.218 82.448 182.042 82.448 181.764 82.4224C181.29 82.3787 180.902 82.2013 180.584 81.8833C180.274 81.5728 180.107 81.2167 180.064 80.7704C180.038 80.5005 180.038 76.4422 180.064 76.1723C180.109 75.7122 180.291 75.3348 180.619 75.026C180.927 74.7351 181.31 74.5613 181.729 74.5218C181.974 74.4987 186.247 74.4974 186.495 74.5203ZM186.556 75.3122C186.411 75.3663 186.277 75.4909 186.21 75.6339C186.023 76.0333 186.308 76.4868 186.761 76.5111C186.98 76.5228 187.203 76.4141 187.323 76.2375C187.401 76.1229 187.429 76.0257 187.427 75.8699C187.423 75.4505 186.967 75.1585 186.556 75.3122ZM183.781 76.0165C183.22 76.0926 182.731 76.33 182.328 76.721C181.895 77.1418 181.656 77.639 181.59 78.2503C181.528 78.8372 181.719 79.4897 182.094 79.9672C182.208 80.1119 182.441 80.3391 182.59 80.4494C183.082 80.8136 183.753 80.9996 184.357 80.9389C184.986 80.8757 185.498 80.6425 185.931 80.2217C186.364 79.8009 186.604 79.3037 186.669 78.6924C186.72 78.2106 186.599 77.6718 186.343 77.2389C185.824 76.3623 184.807 75.8773 183.781 76.0165ZM184.517 76.8916C185.119 77.0312 185.612 77.51 185.755 78.095C185.809 78.3133 185.809 78.6294 185.755 78.8477C185.641 79.3136 185.305 79.719 184.859 79.9292C184.616 80.0439 184.409 80.0892 184.13 80.0892C183.85 80.0892 183.643 80.0439 183.4 79.9292C182.954 79.719 182.618 79.3136 182.504 78.8477C182.45 78.6294 182.45 78.3133 182.504 78.095C182.646 77.5146 183.137 77.0344 183.733 76.8927C183.95 76.841 184.296 76.8405 184.517 76.8916Z" fill="white"></path>
    <circle cx="126.523" cy="48.323" r="15.7292" fill="#337FFF" stroke="white" stroke-width="0.655385"></circle>
    <path d="M130.705 49.4354L131.173 46.2193H128.291V44.1282C128.291 43.249 128.693 42.3889 129.98 42.3889H131.31V39.6497C130.536 39.5164 129.753 39.4435 128.97 39.4336C126.598 39.4336 125.048 40.9767 125.048 43.7656V46.2184H122.419V49.4346H125.048V57.2145H128.291V49.4346H130.706L130.705 49.4354Z" fill="#FBFBFB"></path>
    <g style="mix-blend-mode:multiply">
      <path d="M124.471 62.0044C133.158 62.0044 140.201 54.9622 140.201 46.2752C140.201 42.4535 138.838 38.9501 136.571 36.2246C140.04 39.1099 142.248 43.4584 142.248 48.3227C142.248 57.0097 135.206 64.0519 126.519 64.0519C121.653 64.0519 117.304 61.843 114.419 58.3733C117.144 60.6407 120.649 62.0044 124.471 62.0044Z" fill="#337FFF" fill-opacity="0.5"></path>
    </g>
    <path d="M112.844 48.3226C112.844 42.9087 115.989 38.2295 120.552 36.0128M126.521 34.645C125.092 34.645 123.713 34.8643 122.418 35.2712" stroke="white" stroke-opacity="0.27" stroke-width="0.655385" stroke-linecap="round" stroke-linejoin="round"></path>
    <path d="M120.142 52.7271L120.189 52.8655C120.183 52.8494 120.164 52.8011 120.142 52.7271Z" fill="#69C9D0"></path>
    <circle cx="134.06" cy="104.359" r="82.2508" stroke="white" stroke-width="0.655385" stroke-linecap="round" stroke-dasharray="1.31 2.62"></circle>
    <circle cx="86.5444" cy="132.867" r="9.83077" fill="#FF0000" stroke="white" stroke-width="0.655385"></circle>
    <g style="mix-blend-mode:multiply">
      <path d="M85.2606 141.419C90.69 141.419 95.0914 137.017 95.0914 131.588C95.0914 129.199 94.2397 127.01 92.8234 125.307C94.9909 127.11 96.3706 129.828 96.3706 132.867C96.3706 138.297 91.9693 142.698 86.5399 142.698C83.4988 142.698 80.7803 141.317 78.9771 139.149C80.6808 140.566 82.8711 141.419 85.2606 141.419Z" fill="#C11F1F"></path>
    </g>
    <path d="M83.5955 136.186V129.549C83.5955 129.192 83.9845 128.972 84.2903 129.156L89.8213 132.474C90.1183 132.652 90.1183 133.083 89.8213 133.261L84.2903 136.58C83.9845 136.763 83.5955 136.543 83.5955 136.186Z" fill="white"></path>
    <path d="M77.9954 132.867C77.9954 129.484 79.9613 126.559 82.8132 125.174M86.5439 124.319C85.6504 124.319 84.7889 124.456 83.9793 124.71" stroke="white" stroke-opacity="0.27" stroke-width="0.655385" stroke-linecap="round" stroke-linejoin="round"></path>
    <path d="M82.5593 135.624L82.5887 135.709C82.5847 135.699 82.573 135.669 82.5593 135.624Z" fill="#69C9D0"></path>
    <path d="M129.51 176.457L133.239 139.246H138.342L143.919 172.638C146.561 173.171 148.55 175.502 148.55 178.296C148.55 178.712 148.505 179.119 148.421 179.51C148.818 179.465 149.221 179.442 149.629 179.442C155.454 179.442 160.177 184.155 160.177 189.968C160.177 190.446 160.145 190.917 160.083 191.378C161.613 190.625 163.328 190.203 165.139 190.203C171.387 190.203 176.49 195.225 176.804 201.542C179.164 200.405 181.81 199.768 184.606 199.768C194.531 199.768 202.548 208.993 202.548 218.898H133.077H63.6062C63.6062 208.333 72.1882 199.768 82.7745 199.768C83.9476 199.768 85.0961 199.873 86.211 200.074C87.8112 193.715 93.5774 189.007 100.445 189.007C102.337 189.007 104.144 189.364 105.805 190.014C107.498 185.737 111.679 182.71 116.567 182.71C117.028 182.71 117.482 182.737 117.928 182.79C117.928 182.763 117.928 182.736 117.928 182.71C117.928 178.584 121.279 175.239 125.413 175.239C126.925 175.239 128.333 175.687 129.51 176.457Z" fill="white"></path>
    <path d="M160.083 191.378C160.145 190.917 160.177 190.446 160.177 189.968C160.177 184.155 155.454 179.442 149.629 179.442C149.221 179.442 148.818 179.465 148.421 179.51C148.505 179.119 148.55 178.712 148.55 178.296C148.55 175.502 146.561 173.171 143.919 172.638L138.342 139.246H133.239L129.51 176.457C128.333 175.687 126.925 175.239 125.413 175.239C121.279 175.239 117.928 178.584 117.928 182.71C117.928 182.736 117.928 182.763 117.928 182.79M160.083 191.378C161.613 190.625 163.328 190.203 165.139 190.203C171.387 190.203 176.49 195.225 176.804 201.542C179.164 200.405 181.81 199.768 184.606 199.768C194.531 199.768 202.548 208.993 202.548 218.898H133.077H63.6062C63.6062 208.333 72.1882 199.768 82.7745 199.768C83.9476 199.768 85.0961 199.873 86.211 200.074C87.8112 193.715 93.5774 189.007 100.445 189.007C102.337 189.007 104.144 189.364 105.805 190.014C107.498 185.737 111.679 182.71 116.567 182.71C117.028 182.71 117.482 182.737 117.928 182.79M160.083 191.378C159.209 191.823 158.381 192.393 157.626 193.09C156.382 194.238 155.465 195.608 154.881 197.081M117.928 182.79C119.635 182.986 121.32 183.587 122.837 184.622C124.236 185.576 125.343 186.796 126.137 188.169" stroke="white" stroke-width="0.655385" stroke-linecap="round" stroke-linejoin="round"></path>
    <g style="mix-blend-mode:multiply">
      <path d="M135.347 139.246L140.924 172.638C143.566 173.171 145.555 175.502 145.555 178.296C145.555 178.712 145.51 179.119 145.426 179.51C145.823 179.465 146.226 179.442 146.634 179.442C152.459 179.442 157.182 184.155 157.182 189.968C157.182 190.446 157.15 190.917 157.088 191.378C158.049 190.904 159.083 190.562 160.168 190.373C160.173 190.239 160.176 190.104 160.176 189.968C160.176 184.155 155.454 179.442 149.629 179.442C149.22 179.442 148.817 179.465 148.421 179.51C148.505 179.119 148.549 178.712 148.549 178.296C148.549 175.502 146.56 173.171 143.918 172.638L138.342 139.246H135.347Z" fill="#EDF4FF"></path>
      <path d="M163.641 190.3C169.189 191.027 173.521 195.738 173.809 201.542C174.731 201.097 175.698 200.729 176.7 200.446C175.888 194.654 171.021 190.203 165.138 190.203C164.631 190.203 164.131 190.236 163.641 190.3Z" fill="#EDF4FF"></path>
      <path d="M183.058 199.833C192.304 200.675 199.553 209.479 199.553 218.898H202.547C202.547 208.993 194.531 199.768 184.606 199.768C184.084 199.768 183.568 199.79 183.058 199.833Z" fill="#EDF4FF"></path>
    </g>
    <path d="M107.754 203.03C109.286 201.373 111.478 200.335 113.913 200.335C117.488 200.335 120.541 202.574 121.747 205.725" stroke="white" stroke-width="0.655385"></path>
    <path d="M136.974 172.735V172.732L136.974 172.731C136.981 172.574 137.691 157.091 142.056 152.404C142.056 152.404 142.251 153.653 141.596 158.897C150.443 144.478 144.578 137.422 143.547 135.488H130.365C129.333 137.422 123.468 144.478 132.316 158.897C131.66 153.653 131.855 152.404 131.855 152.404C133.408 154.821 136.685 166.946 136.974 172.735Z" fill="#FFBA66"></path>
    <path d="M136.974 172.735V172.732C136.974 172.735 137.668 157.115 142.056 152.404C142.056 152.404 142.251 153.653 141.596 158.897C150.443 144.478 144.578 137.422 143.547 135.488H130.365C129.333 137.422 123.468 144.478 132.316 158.897C131.66 153.653 131.855 152.404 131.855 152.404C133.408 154.821 136.685 166.946 136.974 172.735ZM136.974 172.735L136.974 172.734M136.974 172.735V172.737L136.974 172.736" stroke="white" stroke-width="0.655385" stroke-linejoin="round"></path>
    <path d="M129.947 150.377C129.246 148.986 128.308 145.897 129.019 142.885M129.853 140.735C129.717 140.976 129.596 141.22 129.489 141.467" stroke="#FFD4A0" stroke-width="0.655385" stroke-linecap="round" stroke-linejoin="round"></path>
    <g style="mix-blend-mode:multiply">
      <path d="M132.003 134.692C131.112 136.363 129.436 140.91 131.843 145.724C134.852 151.742 136.189 155.419 136.524 159.097C136.858 155.419 138.195 151.742 141.204 145.724C143.611 140.91 141.936 136.363 141.044 134.692H132.003Z" fill="#FFBA66" fill-opacity="0.5"></path>
    </g>
    <g style="mix-blend-mode:multiply">
      <path d="M133.472 134.691C132.93 135.709 132.211 138.476 133.676 141.406C135.507 145.068 136.321 147.306 136.524 149.544C136.728 147.306 137.541 145.068 139.372 141.406C140.837 138.476 140.118 135.709 139.576 134.691H133.472Z" fill="#FFBA66" fill-opacity="0.5"></path>
    </g>
    <path d="M128.123 128.761H144.924L144.073 134.848C143.711 137.438 141.496 139.366 138.881 139.366H134.167C131.551 139.366 129.336 137.438 128.974 134.848L128.123 128.761Z" fill="#0848E0" stroke="white" stroke-width="0.655385"></path>
    <g style="mix-blend-mode:multiply">
      <path d="M133.145 138.916C133.908 139.207 134.734 139.365 135.593 139.365L137.456 139.365C140.889 139.365 143.796 136.836 144.272 133.436L144.925 128.76L142.27 128.76L141.68 132.987C141.204 136.387 138.297 138.916 134.864 138.916L133.145 138.916Z" fill="#0848E0"></path>
    </g>
    <path d="M130.677 132.898C130.669 133.034 130.664 133.186 130.664 133.348M132.299 137.301C131.347 137.063 130.917 135.858 130.752 134.677" stroke="#3A72F8" stroke-width="0.655385" stroke-linecap="round"></path>
    <path d="M135.978 129.151L108.977 141.198C107.445 141.896 105.48 141.499 104.966 139.894C104.641 138.88 104.69 138.003 105.018 137.303C114.254 117.782 123.51 98.2673 132.663 78.9869C133.176 77.9047 134.028 76.9167 135.213 76.7396C137.845 76.3463 138.677 78.768 139.632 80.6589C143.736 89.008 147.656 97.4702 151.653 105.883C156.438 115.96 161.229 126.058 166.049 136.085C166.786 137.629 167.538 139.059 166.958 140.772C166.537 141.297 165.94 141.651 165.278 141.769C164.615 141.887 163.932 141.761 163.355 141.414C154.739 137.516 144.679 133.041 135.978 129.151Z" fill="#0F67EA"></path>
    <path d="M136.235 87.2978L135.978 129.151M135.978 129.151L108.977 141.198C107.445 141.896 105.48 141.499 104.966 139.894C104.641 138.88 104.69 138.003 105.018 137.303C114.254 117.782 123.51 98.2673 132.663 78.9869C133.176 77.9047 134.028 76.9167 135.213 76.7396C137.845 76.3463 138.677 78.768 139.632 80.6589C143.736 89.008 147.656 97.4702 151.653 105.883C156.438 115.96 161.229 126.058 166.049 136.085C166.786 137.629 167.538 139.059 166.958 140.772C166.537 141.297 165.94 141.651 165.278 141.769C164.615 141.887 163.932 141.761 163.355 141.414C154.739 137.516 144.679 133.041 135.978 129.151Z" stroke="white" stroke-width="0.655385" stroke-linecap="round" stroke-linejoin="round"></path>
    <g style="mix-blend-mode:screen">
      <path d="M128.824 92.5789L127.875 94.5683M109.36 133.36L125.501 99.5416" stroke="#0F67EA" stroke-opacity="0.8" stroke-width="0.655385" stroke-linecap="round" stroke-linejoin="round"></path>
    </g>
    <g style="mix-blend-mode:multiply">
      <path d="M132.33 80.0105C134.367 79.9386 135.22 81.7027 136.015 83.3469C136.117 83.558 136.218 83.7672 136.32 83.9702C139.198 89.8239 141.985 95.7333 144.771 101.642C145.959 104.161 147.147 106.68 148.342 109.194L149.008 110.596C153.571 120.208 158.141 129.834 162.738 139.396C162.77 139.465 162.803 139.534 162.836 139.602C163.069 140.088 163.298 140.565 163.479 141.045C163.535 141.07 163.592 141.096 163.648 141.121C164.225 141.468 164.908 141.594 165.571 141.476C166.233 141.358 166.83 141.004 167.251 140.479C167.805 138.842 167.144 137.464 166.441 135.998C166.408 135.929 166.375 135.861 166.342 135.792C161.746 126.23 157.175 116.603 152.612 106.993L151.946 105.59C150.752 103.075 149.564 100.557 148.376 98.0378C145.589 92.1288 142.802 86.2194 139.925 80.3657C139.822 80.1627 139.721 79.9535 139.619 79.7424C138.77 77.9872 137.856 76.0953 135.506 76.4464C134.32 76.6235 133.469 77.6115 132.956 78.6937C132.747 79.1325 132.539 79.5715 132.33 80.0105Z" fill="#0F67EA" fill-opacity="0.5"></path>
    </g>
    <path d="M112.506 195.129C108.98 195.129 106.092 197.829 105.862 201.244C105.166 201.141 104.454 201.087 103.73 201.087C96.7458 201.087 90.9381 206.042 89.7347 212.575C86.5501 210.225 82.5959 208.833 78.3096 208.833C70.0088 208.833 62.9467 214.056 60.3293 221.345H205.169C203.133 213.137 195.613 207.045 186.648 207.045C181.221 207.045 176.323 209.278 172.852 212.861C171.768 206.187 165.891 201.087 158.807 201.087C155.652 201.087 152.737 202.099 150.378 203.81C148.208 199.714 143.853 196.917 138.834 196.917C135.708 196.917 132.842 198.001 130.598 199.808C128.742 198.019 126.202 196.917 123.4 196.917C121.506 196.917 119.732 197.421 118.208 198.299C117.043 196.4 114.924 195.129 112.506 195.129Z" fill="white"></path>
    <path d="M105.862 201.244C106.092 197.829 108.98 195.129 112.506 195.129C114.924 195.129 117.043 196.4 118.208 198.299C119.732 197.421 121.506 196.917 123.4 196.917C126.202 196.917 128.742 198.019 130.598 199.808C132.842 198.001 135.708 196.917 138.834 196.917C143.853 196.917 148.208 199.714 150.378 203.81M105.862 201.244C105.166 201.141 104.454 201.087 103.73 201.087C96.7458 201.087 90.9381 206.042 89.7347 212.575C86.5501 210.225 82.5959 208.833 78.3096 208.833C70.0088 208.833 62.9467 214.056 60.3293 221.345H205.169C203.133 213.137 195.613 207.045 186.648 207.045C181.221 207.045 176.323 209.278 172.852 212.861C171.768 206.187 165.891 201.087 158.807 201.087C155.652 201.087 152.737 202.099 150.378 203.81M105.862 201.244C107.587 201.439 109.29 202.038 110.823 203.067C112.237 204.016 113.356 205.23 114.159 206.596M150.378 203.81C149.71 204.322 149.092 204.919 148.54 205.599C147.38 207.025 146.643 208.651 146.314 210.329" stroke="white" stroke-width="0.655385" stroke-linecap="round" stroke-linejoin="round"></path>
    <circle cx="92.4431" cy="32.5937" r="2.62154" fill="white"></circle>
    <circle cx="80.6462" cy="85.6796" r="2.62154" fill="white"></circle>
    <circle cx="74.7475" cy="161.049" r="2.62154" fill="white"></circle>
    <circle cx="190.095" cy="116.483" r="2.62154" fill="white"></circle>
    <circle cx="182.231" cy="171.536" r="2.62154" fill="white"></circle>
    <circle cx="152.738" cy="77.8154" r="2.62154" fill="white"></circle>
    <circle cx="205.169" cy="63.3969" r="2.62154" fill="white"></circle>
    <ellipse cx="213.362" cy="118.775" rx="10.8138" ry="10.8117" fill="#BD081C" stroke="white" stroke-width="0.655385"></ellipse>
    <g style="mix-blend-mode:multiply">
      <path d="M211.948 128.181C217.92 128.181 222.762 123.34 222.762 117.369C222.762 114.743 221.825 112.335 220.267 110.461C222.651 112.445 224.169 115.433 224.169 118.777C224.169 124.748 219.328 129.588 213.355 129.588C210.01 129.588 207.02 128.07 205.036 125.685C206.91 127.243 209.32 128.181 211.948 128.181Z" fill="#BD081C" fill-opacity="0.5"></path>
    </g>
    <path d="M203.957 118.775C203.957 115.053 206.12 111.837 209.257 110.313M213.361 109.373C212.378 109.373 211.43 109.524 210.54 109.803" stroke="white" stroke-opacity="0.27" stroke-width="0.655385" stroke-linecap="round" stroke-linejoin="round"></path>
    <path d="M208.974 121.805L209.006 121.9C209.002 121.889 208.989 121.856 208.974 121.805Z" fill="#69C9D0"></path>
    <path d="M211.554 123.74C211.539 123.725 211.144 124.409 211.144 124.409C211.144 124.409 211.075 123.604 211.086 123.608C211.031 123.091 210.983 122.296 211.121 121.732C211.245 121.222 211.921 118.485 211.921 118.485C211.921 118.485 211.724 118.094 211.728 117.516C211.733 116.607 212.274 115.929 212.941 115.929C213.508 115.929 213.779 116.348 213.776 116.849C213.774 117.207 213.623 117.678 213.464 118.173C213.374 118.454 213.281 118.743 213.212 119.024C213.051 119.674 213.536 120.204 214.189 120.204C215.371 120.204 216.287 118.98 216.298 117.213C216.307 115.649 215.171 114.556 213.537 114.556C211.646 114.556 210.527 115.95 210.517 117.391C210.514 117.952 210.73 118.554 211.003 118.881C211.057 118.946 211.064 119.003 211.048 119.069C211.019 119.185 210.969 119.377 210.928 119.538L210.928 119.538C210.896 119.663 210.868 119.77 210.859 119.809C210.829 119.929 210.761 119.954 210.636 119.897C209.808 119.517 209.296 118.324 209.302 117.366C209.315 115.306 210.851 113.414 213.72 113.414C216.026 113.414 217.808 115.028 217.795 117.186C217.78 119.437 216.324 121.249 214.319 121.249C213.645 121.249 213.014 120.905 212.8 120.499C212.8 120.499 212.459 121.746 212.376 122.051C212.225 122.608 211.828 123.304 211.554 123.74Z" fill="white"></path>
    <circle cx="171.089" cy="30.6277" r="13.1077" fill="#1B1C1E" stroke="white" stroke-width="0.655385"></circle>
    <path d="M173.586 29.1007C174.348 29.6594 175.282 29.9881 176.29 29.9881V27.9982C176.099 27.9982 175.909 27.9778 175.722 27.9372V29.5036C174.714 29.5036 173.781 29.1749 173.018 28.6162V32.6771C173.018 34.7086 171.413 36.3553 169.432 36.3553C168.693 36.3553 168.006 36.1261 167.436 35.7332C168.087 36.4161 168.995 36.8397 170 36.8397C171.981 36.8397 173.586 35.193 173.586 33.1615V29.1007H173.586ZM174.287 27.0931C173.897 26.6567 173.642 26.0928 173.586 25.4693V25.2134H173.048C173.184 26.0058 173.646 26.6828 174.287 27.0931ZM168.689 34.1743C168.471 33.8817 168.353 33.5237 168.354 33.1557C168.354 32.2266 169.088 31.4732 169.994 31.4732C170.163 31.4732 170.331 31.4997 170.492 31.5521V29.5177C170.304 29.4912 170.114 29.48 169.924 29.4841V31.0676C169.763 31.0152 169.595 30.9886 169.427 30.9888C168.52 30.9888 167.786 31.7421 167.786 32.6713C167.786 33.3283 168.153 33.8972 168.689 34.1743Z" fill="#FF004F"></path>
    <path d="M173.019 28.6162C173.781 29.1748 174.714 29.5036 175.722 29.5036V27.9372C175.16 27.8143 174.661 27.5126 174.287 27.0931C173.646 26.6827 173.184 26.0057 173.048 25.2134H171.635V33.1614C171.632 34.088 170.899 34.8382 169.994 34.8382C169.462 34.8382 168.988 34.5778 168.689 34.1743C168.153 33.8972 167.786 33.3283 167.786 32.6713C167.786 31.7422 168.521 30.9888 169.427 30.9888C169.6 30.9888 169.768 31.0166 169.924 31.0676V29.4842C167.979 29.5254 166.414 31.156 166.414 33.1615C166.414 34.1626 166.804 35.0701 167.436 35.7332C168.007 36.1261 168.693 36.3553 169.432 36.3553C171.413 36.3553 173.019 34.7085 173.019 32.6771V28.6162H173.019Z" fill="white"></path>
    <path d="M175.723 27.9373V27.5137C175.215 27.5145 174.718 27.3687 174.287 27.0931C174.668 27.5211 175.17 27.8162 175.723 27.9373ZM173.048 25.2134C173.036 25.1377 173.026 25.0615 173.019 24.985V24.729H171.067V32.6771C171.064 33.6036 170.331 34.3538 169.427 34.3538C169.161 34.3538 168.911 34.2892 168.689 34.1744C168.988 34.5778 169.462 34.8383 169.995 34.8383C170.899 34.8383 171.632 34.0881 171.635 33.1615V25.2134H173.048ZM169.925 29.4842V29.0333C169.762 29.0105 169.597 28.999 169.433 28.9991C167.452 28.999 165.846 30.6458 165.846 32.6771C165.846 33.9506 166.477 35.073 167.436 35.7332C166.804 35.0701 166.414 34.1625 166.414 33.1615C166.414 31.1561 167.979 29.5254 169.925 29.4842Z" fill="#00F2EA"></path>
    <g style="mix-blend-mode:multiply">
      <path d="M169.38 42.0286C176.619 42.0286 182.487 36.1601 182.487 28.9209C182.487 25.7361 181.352 22.8166 179.463 20.5454C182.353 22.9498 184.193 26.5736 184.193 30.6271C184.193 37.8663 178.325 43.7348 171.086 43.7348C167.031 43.7348 163.407 41.894 161.002 39.0026C163.274 40.8922 166.194 42.0286 169.38 42.0286Z" fill="white"></path>
    </g>
    <path d="M159.69 30.6275C159.69 26.1159 162.311 22.2166 166.113 20.3693M171.088 19.2295C169.896 19.2295 168.748 19.4123 167.668 19.7513" stroke="white" stroke-opacity="0.27" stroke-width="0.655385" stroke-linecap="round" stroke-linejoin="round"></path>
    <path d="M165.773 34.2969L165.813 34.4122C165.808 34.3988 165.792 34.3586 165.773 34.2969Z" fill="#69C9D0"></path>
    <circle cx="51.8093" cy="97.4766" r="14.4185" fill="#006699" stroke="white" stroke-width="0.655385"></circle>
    <g style="mix-blend-mode:multiply">
      <path d="M49.9324 110.015C57.897 110.015 64.3535 103.56 64.3535 95.5967C64.3535 92.1038 63.1112 88.9009 61.0443 86.4058C64.2116 89.0506 66.2266 93.0286 66.2266 97.4771C66.2266 105.44 59.77 111.895 51.8055 111.895C47.3345 111.895 43.3388 109.861 40.6936 106.668C43.1958 108.758 46.4173 110.015 49.9324 110.015Z" fill="#006699" fill-opacity="0.5"></path>
    </g>
    <path d="M39.2722 97.4761C39.2722 92.5135 42.1561 88.2242 46.3397 86.1922M51.8123 84.9385C50.5016 84.9385 49.2379 85.1395 48.0503 85.5125" stroke="white" stroke-opacity="0.27" stroke-width="0.655385" stroke-linecap="round" stroke-linejoin="round"></path>
    <path d="M48.8152 102.635V93.8289H45.8312V102.635H48.8152ZM47.3237 92.627C48.3635 92.627 49.0119 91.9508 49.0119 91.1072C48.9918 90.243 48.3635 89.5845 47.3427 89.5845C46.322 89.5845 45.6555 90.242 45.6555 91.1072C45.6555 91.9725 46.3029 92.627 47.3046 92.627H47.3237ZM50.4672 102.635H53.4512V97.718C53.4512 97.4552 53.4703 97.1914 53.5496 97.0043C53.7644 96.4777 54.2562 95.9334 55.0802 95.9334C56.1602 95.9334 56.5918 96.7405 56.5918 97.9247V102.635H59.5758V97.5851C59.5758 94.8811 58.1044 93.6222 56.1401 93.6222C54.5302 93.6222 53.8236 94.5042 53.4301 95.1056H53.4492V93.8289H50.4652C50.5054 94.6557 50.4652 102.635 50.4652 102.635H50.4672Z" fill="white"></path>
    <path d="M271.58 126.587C274.185 126.587 276.296 124.56 276.296 122.059C276.296 119.867 274.672 118.038 272.515 117.621C272.52 117.532 272.523 117.442 272.523 117.351C272.523 114.851 270.411 112.824 267.806 112.824C265.95 112.824 264.344 113.853 263.575 115.349C262.902 114.899 262.085 114.635 261.203 114.635C259.259 114.635 257.627 115.917 257.176 117.649C256.833 117.572 256.476 117.532 256.109 117.532C253.504 117.532 251.392 119.559 251.392 122.059C251.392 124.56 253.504 126.587 256.109 126.587H271.58Z" fill="#003787"></path>
    <path d="M236.868 75.4933C238.17 75.4933 239.226 74.528 239.226 73.3374C239.226 72.2932 238.414 71.4222 237.335 71.224C237.338 71.1814 237.339 71.1384 237.339 71.0953C237.339 69.9047 236.283 68.9395 234.981 68.9395C234.053 68.9395 233.25 69.4294 232.865 70.1419C232.529 69.9274 232.12 69.8018 231.679 69.8018C230.707 69.8018 229.891 70.4125 229.666 71.237C229.494 71.2008 229.316 71.1816 229.132 71.1816C227.83 71.1816 226.774 72.1468 226.774 73.3374C226.774 74.528 227.83 75.4933 229.132 75.4933H236.868Z" fill="#003787"></path>
    <path d="M236.289 153.28C238.346 153.28 240.013 151.736 240.013 149.831C240.013 148.16 238.731 146.766 237.028 146.449C237.032 146.381 237.034 146.312 237.034 146.243C237.034 144.338 235.367 142.794 233.31 142.794C231.845 142.794 230.577 143.578 229.97 144.718C229.439 144.375 228.793 144.174 228.097 144.174C226.562 144.174 225.274 145.151 224.918 146.47C224.647 146.412 224.365 146.381 224.075 146.381C222.019 146.381 220.352 147.926 220.352 149.831C220.352 151.736 222.019 153.28 224.075 153.28H236.289Z" fill="#003787"></path>
    <path d="M43.0807 163.671C41.0241 163.671 39.3569 162.126 39.3569 160.221C39.3569 158.551 40.6395 157.157 42.3425 156.84C42.3382 156.772 42.336 156.703 42.336 156.634C42.336 154.729 44.0031 153.185 46.0597 153.185C47.525 153.185 48.7926 153.968 49.4004 155.108C49.9312 154.765 50.5768 154.564 51.273 154.564C52.8076 154.564 54.0958 155.541 54.4521 156.861C54.7229 156.803 55.0049 156.772 55.2947 156.772C57.3513 156.772 59.0185 158.316 59.0185 160.221C59.0185 162.126 57.3513 163.671 55.2947 163.671H43.0807Z" fill="#003787"></path>
    <path d="M6.28981 121.727C4.64454 121.727 3.31079 120.472 3.31079 118.924C3.31079 117.566 4.33687 116.434 5.69924 116.176C5.69581 116.121 5.69401 116.065 5.69401 116.009C5.69401 114.461 7.02776 113.207 8.67303 113.207C9.84526 113.207 10.8594 113.843 11.3456 114.77C11.7702 114.491 12.2867 114.328 12.8437 114.328C14.0713 114.328 15.1019 115.122 15.3869 116.193C15.6036 116.146 15.8292 116.121 16.061 116.121C17.7063 116.121 19.04 117.376 19.04 118.924C19.04 120.472 17.7063 121.727 16.061 121.727H6.28981Z" fill="#003787"></path>
    <path d="M10.0214 63.5679C6.1824 63.5679 3.07031 60.5756 3.07031 56.8847C3.07031 53.6475 5.46449 50.9476 8.64337 50.3331C8.63536 50.201 8.63115 50.0678 8.63115 49.9342C8.63115 46.2433 11.7432 43.251 15.5822 43.251C18.3174 43.251 20.6836 44.7698 21.8182 46.9784C22.809 46.3138 24.014 45.9243 25.3137 45.9243C28.1783 45.9243 30.5829 47.8175 31.248 50.3733C31.7534 50.261 32.2799 50.2015 32.8208 50.2015C36.6598 50.2015 39.7719 53.1938 39.7719 56.8847C39.7719 60.5756 36.6598 63.5679 32.8208 63.5679H10.0214Z" fill="#003787"></path>
    <path d="M448.731 176.51L448.678 175.479L449.539 176.044L449.745 175.685L448.83 175.218L449.745 174.752L449.539 174.402L448.678 174.958L448.731 173.927H448.319L448.364 174.958L447.502 174.402L447.305 174.752L448.22 175.218L447.305 175.685L447.502 176.044L448.364 175.479L448.319 176.51H448.731ZM455.701 180V174.016H454.956V178.69L451.511 174.016H450.749V180H451.493V175.227L454.983 180H455.701ZM458.966 180.108C460.285 180.108 461.11 179.085 461.11 177.829C461.11 176.573 460.285 175.559 458.966 175.559C457.647 175.559 456.822 176.573 456.822 177.829C456.822 179.085 457.647 180.108 458.966 180.108ZM458.966 179.507C458.042 179.507 457.522 178.717 457.522 177.829C457.522 176.95 458.042 176.16 458.966 176.16C459.89 176.16 460.401 176.95 460.401 177.829C460.401 178.717 459.89 179.507 458.966 179.507ZM467.382 180.108C468.44 180.108 469.158 179.605 469.66 178.923L469.023 178.574C468.683 179.085 468.064 179.444 467.382 179.444C466.072 179.444 465.076 178.43 465.076 177.013C465.076 175.586 466.072 174.581 467.382 174.581C468.064 174.581 468.683 174.949 469.023 175.452L469.651 175.102C469.176 174.429 468.44 173.918 467.382 173.918C465.659 173.918 464.305 175.174 464.305 177.013C464.305 178.852 465.659 180.108 467.382 180.108ZM471.255 180V176.932C471.453 176.582 472.018 176.241 472.43 176.241C472.538 176.241 472.619 176.25 472.7 176.268V175.577C472.108 175.577 471.605 175.909 471.255 176.367V175.667H470.582V180H471.255ZM475.499 180.108C476.208 180.108 476.791 179.874 477.222 179.444L476.899 179.004C476.558 179.354 476.055 179.551 475.562 179.551C474.629 179.551 474.055 178.87 474.001 178.053H477.509V177.883C477.509 176.582 476.737 175.559 475.428 175.559C474.19 175.559 473.292 176.573 473.292 177.829C473.292 179.184 474.216 180.108 475.499 180.108ZM476.845 177.56H474.001C474.037 176.896 474.495 176.116 475.419 176.116C476.405 176.116 476.836 176.914 476.845 177.56ZM482.411 180V174.016H481.738V176.322C481.389 175.846 480.859 175.559 480.276 175.559C479.137 175.559 478.347 176.456 478.347 177.838C478.347 179.246 479.146 180.108 480.276 180.108C480.886 180.108 481.416 179.794 481.738 179.354V180H482.411ZM480.438 179.507C479.567 179.507 479.047 178.798 479.047 177.838C479.047 176.878 479.567 176.16 480.438 176.16C480.976 176.16 481.496 176.483 481.738 176.86V178.825C481.496 179.202 480.976 179.507 480.438 179.507ZM484.091 175.048C484.342 175.048 484.548 174.851 484.548 174.599C484.548 174.348 484.342 174.142 484.091 174.142C483.848 174.142 483.642 174.348 483.642 174.599C483.642 174.851 483.848 175.048 484.091 175.048ZM484.432 180V175.667H483.759V180H484.432ZM486.868 180.108C487.263 180.108 487.505 179.991 487.676 179.83L487.478 179.327C487.389 179.426 487.209 179.507 487.021 179.507C486.725 179.507 486.581 179.273 486.581 178.95V176.259H487.46V175.667H486.581V174.483H485.908V175.667H485.191V176.259H485.908V179.094C485.908 179.74 486.231 180.108 486.868 180.108ZM493.585 180.108C494.644 180.108 495.362 179.605 495.864 178.923L495.227 178.574C494.886 179.085 494.267 179.444 493.585 179.444C492.276 179.444 491.28 178.43 491.28 177.013C491.28 175.586 492.276 174.581 493.585 174.581C494.267 174.581 494.886 174.949 495.227 175.452L495.855 175.102C495.38 174.429 494.644 173.918 493.585 173.918C491.863 173.918 490.508 175.174 490.508 177.013C490.508 178.852 491.863 180.108 493.585 180.108ZM500.168 180V177.022C500.168 175.972 499.406 175.559 498.491 175.559C497.782 175.559 497.226 175.793 496.759 176.277L497.073 176.743C497.459 176.331 497.881 176.142 498.401 176.142C499.029 176.142 499.495 176.474 499.495 177.057V177.838C499.145 177.434 498.652 177.246 498.06 177.246C497.324 177.246 496.544 177.703 496.544 178.672C496.544 179.614 497.324 180.108 498.06 180.108C498.643 180.108 499.137 179.901 499.495 179.507V180H500.168ZM498.302 179.623C497.674 179.623 497.235 179.228 497.235 178.681C497.235 178.125 497.674 177.73 498.302 177.73C498.778 177.73 499.235 177.91 499.495 178.269V179.085C499.235 179.444 498.778 179.623 498.302 179.623ZM502.19 180V176.932C502.387 176.582 502.952 176.241 503.365 176.241C503.473 176.241 503.553 176.25 503.634 176.268V175.577C503.042 175.577 502.54 175.909 502.19 176.367V175.667H501.517V180H502.19ZM508.291 180V174.016H507.618V176.322C507.268 175.846 506.739 175.559 506.156 175.559C505.016 175.559 504.227 176.456 504.227 177.838C504.227 179.246 505.025 180.108 506.156 180.108C506.766 180.108 507.295 179.794 507.618 179.354V180H508.291ZM506.317 179.507C505.447 179.507 504.927 178.798 504.927 177.838C504.927 176.878 505.447 176.16 506.317 176.16C506.855 176.16 507.376 176.483 507.618 176.86V178.825C507.376 179.202 506.855 179.507 506.317 179.507ZM516.32 180L514.705 177.56C515.522 177.488 516.257 176.896 516.257 175.819C516.257 174.716 515.477 174.016 514.382 174.016H511.978V180H512.723V177.623H513.916L515.441 180H516.32ZM514.293 176.968H512.723V174.68H514.293C515.001 174.68 515.486 175.147 515.486 175.819C515.486 176.492 515.001 176.968 514.293 176.968ZM519.093 180.108C519.802 180.108 520.385 179.874 520.816 179.444L520.493 179.004C520.152 179.354 519.649 179.551 519.156 179.551C518.223 179.551 517.649 178.87 517.595 178.053H521.103V177.883C521.103 176.582 520.331 175.559 519.021 175.559C517.783 175.559 516.886 176.573 516.886 177.829C516.886 179.184 517.81 180.108 519.093 180.108ZM520.439 177.56H517.595C517.631 176.896 518.088 176.116 519.012 176.116C519.999 176.116 520.43 176.914 520.439 177.56ZM524.005 179.507C523.134 179.507 522.623 178.789 522.623 177.829C522.623 176.869 523.134 176.16 524.005 176.16C524.543 176.16 525.072 176.474 525.297 176.851V178.807C525.072 179.184 524.543 179.507 524.005 179.507ZM523.843 180.108C524.426 180.108 524.947 179.83 525.297 179.345V181.651H525.969V175.667H525.297V176.313C524.992 175.873 524.453 175.559 523.843 175.559C522.704 175.559 521.914 176.421 521.914 177.829C521.914 179.228 522.704 180.108 523.843 180.108ZM530.924 180V175.667H530.251V178.852C530 179.202 529.497 179.507 528.968 179.507C528.385 179.507 527.999 179.282 527.999 178.52V175.667H527.326V178.726C527.326 179.668 527.802 180.108 528.708 180.108C529.354 180.108 529.919 179.767 530.251 179.39V180H530.924ZM532.599 175.048C532.851 175.048 533.057 174.851 533.057 174.599C533.057 174.348 532.851 174.142 532.599 174.142C532.357 174.142 532.151 174.348 532.151 174.599C532.151 174.851 532.357 175.048 532.599 175.048ZM532.94 180V175.667H532.267V180H532.94ZM534.955 180V176.932C535.153 176.582 535.718 176.241 536.131 176.241C536.238 176.241 536.319 176.25 536.4 176.268V175.577C535.808 175.577 535.305 175.909 534.955 176.367V175.667H534.282V180H534.955ZM539.199 180.108C539.908 180.108 540.491 179.874 540.922 179.444L540.599 179.004C540.258 179.354 539.756 179.551 539.262 179.551C538.329 179.551 537.755 178.87 537.701 178.053H541.209V177.883C541.209 176.582 540.437 175.559 539.128 175.559C537.89 175.559 536.992 176.573 536.992 177.829C536.992 179.184 537.916 180.108 539.199 180.108ZM540.545 177.56H537.701C537.737 176.896 538.195 176.116 539.119 176.116C540.105 176.116 540.536 176.914 540.545 177.56ZM546.111 180V174.016H545.439V176.322C545.089 175.846 544.559 175.559 543.976 175.559C542.837 175.559 542.047 176.456 542.047 177.838C542.047 179.246 542.846 180.108 543.976 180.108C544.586 180.108 545.116 179.794 545.439 179.354V180H546.111ZM544.138 179.507C543.268 179.507 542.747 178.798 542.747 177.838C542.747 176.878 543.268 176.16 544.138 176.16C544.676 176.16 545.196 176.483 545.439 176.86V178.825C545.196 179.202 544.676 179.507 544.138 179.507Z" fill="white"></path>
  </g>
  <defs>
    <linearGradient id="paint0_linear_1030_27300" x1="194.683" y1="67.9844" x2="173.711" y2="90.9228" gradientUnits="userSpaceOnUse">
      <stop stop-color="#9143C6"></stop>
      <stop offset="0.270833" stop-color="#D8408F"></stop>
      <stop offset="0.666667" stop-color="#F77169"></stop>
      <stop offset="1" stop-color="#FBA66A"></stop>
    </linearGradient>
    <linearGradient id="paint1_linear_1030_27300" x1="194.68" y1="70.4053" x2="176.13" y2="90.6976" gradientUnits="userSpaceOnUse">
      <stop stop-color="#9143C6"></stop>
      <stop offset="0.270833" stop-color="#D8408F"></stop>
      <stop offset="0.666667" stop-color="#F77169"></stop>
      <stop offset="1" stop-color="#FBA66A"></stop>
    </linearGradient>
    <clipPath id="clip0_1030_27300">
      <rect width="750" height="203" rx="12" fill="white"></rect>
    </clipPath>
  </defs>
</svg>
